<?xml version="1.0" encoding="UTF-8"?>
<svg width="172px" height="20px" viewBox="0 0 172 20" version="1.1" xmlns="http://www.w3.org/2000/svg" xmlns:xlink="http://www.w3.org/1999/xlink">
    <!-- Generator: Sketch 53.2 (72643) - https://sketchapp.com -->
    <title>Group 4</title>
    <desc>Created with Sketch.</desc>
    <g id="Page-1" stroke="none" stroke-width="1" fill="none" fill-rule="evenodd">
        <g id="banner-1-copy-6" transform="translate(-121.000000, -32.000000)" fill="#FFFFFF">
            <g id="dg-banner" transform="translate(0.000000, 22.000000)">
                <g id="Group-4" transform="translate(121.000000, 10.000000)">
                    <g id="digit-100-white">
                        <path d="M18.4615385,4.61538462 L10.7692308,4.61538462 L10.7692308,6.15384615 L18.4615385,6.15384615 L18.4615385,4.61538462 Z M18.4615385,3.07692308 L18.4615385,1.53846154 L10.7692308,1.53846154 L10.7692308,3.07692308 L18.4615385,3.07692308 Z M18.4615385,7.69230769 L10.7692308,7.69230769 L10.7692308,9.23076923 L18.4615385,9.23076923 L18.4615385,7.69230769 Z M9.23076923,10.7692308 L1.53846154,10.7692308 L1.53846154,12.3076923 L18.4615385,12.3076923 L18.4615385,10.7692308 L10.7692308,10.7692308 L9.23076923,10.7692308 Z M9.23076923,1.53846154 L1.53846154,1.53846154 L1.53846154,9.23076923 L9.23076923,9.23076923 L9.23076923,1.53846154 Z M18.4615385,13.8461538 L1.53846154,13.8461538 L1.53846154,15.3846154 L18.4615385,15.3846154 L18.4615385,13.8461538 Z M18.4615385,16.9230769 L1.53846154,16.9230769 L1.53846154,18.4615385 L18.4615385,18.4615385 L18.4615385,16.9230769 Z M0,1.53846154 L0,0 L18.4615385,0 L20,-1.32857361e-12 L20,20 L18.4615385,20 L0,20 L0,18.4615385 L1.21185113e-12,1.53846154 Z M6.15384615,1.53846154 L7.69230769,1.53846154 L7.69230769,3.07692308 L6.15384615,3.07692308 L6.15384615,1.53846154 Z M6.15384615,7.69230769 L7.69230769,7.69230769 L7.69230769,9.23076923 L6.15384615,9.23076923 L6.15384615,7.69230769 Z M3.07692308,1.53846154 L4.61538462,1.53846154 L4.61538462,3.07692308 L3.07692308,3.07692308 L3.07692308,1.53846154 Z M3.07692308,4.61538462 L4.61538462,4.61538462 L4.61538462,6.15384615 L3.07692308,6.15384615 L3.07692308,4.61538462 Z M3.07692308,7.69230769 L4.61538462,7.69230769 L4.61538462,9.23076923 L3.07692308,9.23076923 L3.07692308,7.69230769 Z M4.61538462,3.07692308 L6.15384615,3.07692308 L6.15384615,4.61538462 L4.61538462,4.61538462 L4.61538462,3.07692308 Z M7.69230769,3.07692308 L9.23076923,3.07692308 L9.23076923,4.61538462 L7.69230769,4.61538462 L7.69230769,3.07692308 Z M7.69230769,6.15384615 L9.23076923,6.15384615 L9.23076923,7.69230769 L7.69230769,7.69230769 L7.69230769,6.15384615 Z M1.53846154,3.07692308 L3.07692308,3.07692308 L3.07692308,4.61538462 L1.53846154,4.61538462 L1.53846154,3.07692308 Z M1.53846154,6.15384615 L3.07692308,6.15384615 L3.07692308,7.69230769 L1.53846154,7.69230769 L1.53846154,6.15384615 Z M4.61538462,6.15384615 L6.15384615,6.15384615 L6.15384615,7.69230769 L4.61538462,7.69230769 L4.61538462,6.15384615 Z M6.15384615,4.61538462 L7.69230769,4.61538462 L7.69230769,6.15384615 L6.15384615,6.15384615 L6.15384615,4.61538462 Z" id="Combined-Shape"></path>
                    </g>
                    <text id="Digital.gov" font-family="UnitedSans-Bold, United Sans" font-size="18" font-weight="bold" line-spacing="19">
                        <tspan x="25" y="20">Digital.gov</tspan>
                    </text>
                    <text id="Guide" font-family="UnitedSans-Light, United Sans" font-size="18" font-weight="300" line-spacing="19">
                        <tspan x="124.827586" y="20">Guide</tspan>
                    </text>
                </g>
            </g>
        </g>
    </g>
</svg>