<svg width="237" height="49" viewBox="0 0 237 49" fill="none" xmlns="http://www.w3.org/2000/svg">
<path d="M43.029 14.5073L47.81 9.7268V41.4309C47.81 44.9512 44.956 47.8049 41.4353 47.8049H6.37467C2.85404 47.8049 0 44.9512 0 41.4309V6.37398C0 2.85373 2.85404 0 6.37467 0H36.7337L31.9527 4.78049H6.37467C5.49451 4.78049 4.781 5.49392 4.781 6.37398V41.4309C4.781 42.311 5.49451 43.0244 6.37467 43.0244H41.4353C42.3155 43.0244 43.029 42.311 43.029 41.4309V14.5073Z" fill="#C7A97B"/>
<path fill-rule="evenodd" clip-rule="evenodd" d="M17.3311 16.2835C18.3213 16.2835 19.124 17.0861 19.124 18.0762V36.6006H15.5382V18.0762C15.5382 17.0861 16.3409 16.2835 17.3311 16.2835ZM24.5026 10.3079C25.4928 10.3079 26.2955 11.1105 26.2955 12.1006V36.6006H22.7097V12.1006C22.7097 11.1105 23.5124 10.3079 24.5026 10.3079ZM31.6741 22.2591C32.6643 22.2591 33.467 23.0618 33.467 24.0518V36.6006H29.8812V24.0518C29.8812 23.0618 30.6839 22.2591 31.6741 22.2591Z" fill="#2F6794"/>
<path fill-rule="evenodd" clip-rule="evenodd" d="M155.89 31.9373C156.883 31.9373 157.642 32.2107 158.166 32.7575C158.689 33.3043 158.951 34.0179 158.951 34.8981C158.951 35.885 158.582 36.6919 157.843 37.3187C157.105 37.9456 156.266 38.259 155.326 38.259C154.493 38.259 153.775 37.9922 153.171 37.4588C152.566 36.9253 152.264 36.2318 152.264 35.3782C152.264 34.4446 152.64 33.6378 153.392 32.9576C154.144 32.2774 154.977 31.9373 155.89 31.9373Z" fill="#C7A97B"/>
<path fill-rule="evenodd" clip-rule="evenodd" d="M68.169 35.0581V10.4916L64.9061 10.0515V7.4508H70.7068C71.4319 7.4508 72.2912 7.41079 73.2849 7.33077C75.0573 7.22408 76.5075 7.17073 77.6354 7.17073C81.1266 7.17073 83.8053 7.8509 85.6717 9.21127C87.5382 10.5716 88.4714 12.8789 88.4714 16.1331C88.4714 18.1603 87.9611 19.9274 86.9406 21.4345C85.9201 22.9416 84.5506 24.0952 82.8318 24.8954C81.1131 25.6956 79.2333 26.0957 77.1923 26.0957H75.1782C74.1845 26.0957 73.4997 26.1224 73.1237 26.1758V35.0581L78.1993 35.6983V37.7788H64.5436V35.6983L68.169 35.0581ZM73.1237 23.415C73.9831 23.5484 75.2587 23.6151 76.9506 23.6151C78.9379 23.6151 80.5223 23.0283 81.7039 21.8546C82.8855 20.681 83.4763 18.7605 83.4763 16.0931C83.4763 13.9592 82.852 12.3454 81.6032 11.2518C80.3544 10.1582 78.6022 9.63805 76.3463 9.6914C74.8156 9.79809 73.7414 9.91813 73.1237 10.0515V23.415ZM115.822 35.0581H120.822L130.852 7.4508H135.364L144.991 35.0581L148.093 35.7383V37.7788H136.572V35.7383L139.594 35.0581L137.982 29.9768H126.623L124.931 35.0181L128.073 35.6983V37.7788H111.575C111.146 37.7788 110.689 37.3721 110.206 36.5585C109.722 35.745 109.078 34.458 108.272 32.6975C107.144 30.2168 106.13 28.283 105.231 26.896C104.331 25.5089 103.358 24.8154 102.31 24.8154L99.3293 24.8554V35.0581L103.317 35.6983V37.7788H90.7492V35.6983L94.3343 35.0581V10.4116L91.1923 10.0515V7.4508H96.1067C96.6707 7.4508 97.2078 7.43747 97.718 7.41079C98.2283 7.38412 98.6982 7.35745 99.1279 7.33077C100.793 7.22408 102.109 7.17073 103.076 7.17073C106.486 7.17073 109.152 7.78422 111.072 9.01122C112.992 10.2382 113.952 12.2921 113.952 15.1729C113.952 17.3068 113.374 19.1406 112.22 20.6743C111.065 22.2081 109.454 23.3217 107.386 24.0152C107.47 24.0441 107.685 24.1639 108.03 24.3753C108.836 24.8821 109.581 25.6423 110.266 26.6559C110.951 27.6695 111.803 29.0699 112.824 30.857C113.576 32.1907 114.18 33.1976 114.637 33.8778C115.054 34.5001 115.45 34.8935 115.822 35.0581ZM102.391 9.65139C102.176 9.67806 101.881 9.6914 101.505 9.6914C100.43 9.74475 99.7053 9.8381 99.3293 9.97147V22.2947C99.947 22.3748 100.927 22.4148 102.27 22.4148C104.472 22.4148 106.137 21.888 107.265 20.8344C108.393 19.7807 108.957 18.0803 108.957 15.733C108.957 13.7591 108.426 12.2387 107.366 11.1718C106.305 10.1048 104.647 9.59804 102.391 9.65139ZM134.115 17.9336L132.383 12.2121L127.509 27.176H137.056L134.115 17.9336ZM175.207 15.1729C177.704 15.1729 179.705 15.7197 181.209 16.8133C181.746 15.9597 182.941 15.5329 184.794 15.5329H186.929V19.1339H183.022C183.478 20.0408 183.706 21.1211 183.706 22.3748C183.706 24.0552 183.29 25.4956 182.458 26.6959C181.625 27.8962 180.511 28.7965 179.114 29.3966C177.718 29.9968 176.16 30.2969 174.442 30.2969C173.045 30.2969 171.743 30.1101 170.534 29.7367C170.373 30.1635 170.292 30.6036 170.292 31.0571V31.8173C170.292 32.5641 170.501 33.1243 170.917 33.4977C171.333 33.8711 171.998 34.0712 172.911 34.0979C173.797 34.1512 175.435 34.1779 177.825 34.1779C181.048 34.1779 183.25 34.7247 184.432 35.8183C185.613 36.912 186.204 38.4457 186.204 40.4195C186.204 42.02 185.721 43.4003 184.754 44.5606C183.787 45.721 182.451 46.6078 180.746 47.2214C179.04 47.8349 177.087 48.1416 174.885 48.1416C172.065 48.1416 169.742 47.6881 167.916 46.7812C166.09 45.8743 165.177 44.3939 165.177 42.3401C165.177 41.2464 165.506 40.2262 166.163 39.2792C166.821 38.3323 167.607 37.5921 168.52 37.0587C167.822 36.8186 167.312 36.5185 166.989 36.1584C166.667 35.7983 166.472 35.4249 166.405 35.0381C166.338 34.6513 166.304 34.1512 166.304 33.5377C166.304 32.9776 166.546 32.2374 167.03 31.3171C167.513 30.3969 168.104 29.63 168.802 29.0165C166.546 27.7362 165.418 25.749 165.418 23.0549C165.418 21.3211 165.875 19.8674 166.788 18.6938C167.701 17.5201 168.896 16.6399 170.373 16.0531C171.85 15.4663 173.461 15.1729 175.207 15.1729ZM174.442 17.4535C173.179 17.4535 172.172 17.8269 171.42 18.5738C170.668 19.3206 170.292 20.4676 170.292 22.0147C170.292 23.7485 170.668 25.1488 171.42 26.2158C172.172 27.2827 173.354 27.8162 174.965 27.8162C176.389 27.8162 177.409 27.3894 178.027 26.5359C178.644 25.6823 178.953 24.4286 178.953 22.7749C178.953 19.2272 177.449 17.4535 174.442 17.4535ZM170.615 37.5388C169.997 38.419 169.688 39.526 169.688 40.8597C169.688 42.4601 170.252 43.6537 171.38 44.4406C172.508 45.2275 173.945 45.6209 175.69 45.6209C177.731 45.6209 179.282 45.3008 180.343 44.6607C181.404 44.0205 181.934 43.0069 181.934 41.6199C181.934 40.6863 181.786 39.9394 181.491 39.3793C181.196 38.8191 180.672 38.4057 179.92 38.1389C179.168 37.8722 178.094 37.7388 176.697 37.7388L173.878 37.6988C172.481 37.6988 171.393 37.6455 170.615 37.5388ZM200.365 15.2529C203.695 15.2529 206.233 16.2598 207.979 18.2737C209.724 20.2876 210.597 22.9749 210.597 26.3358C210.597 28.6831 210.127 30.757 209.187 32.5575C208.247 34.358 206.958 35.7583 205.32 36.7586C203.682 37.7588 201.829 38.259 199.761 38.259C196.297 38.259 193.678 37.1987 191.906 35.0781C190.133 32.9576 189.247 30.1902 189.247 26.7759C189.247 24.4286 189.744 22.3881 190.738 20.6543C191.731 18.9205 193.067 17.5868 194.746 16.6532C196.424 15.7197 198.297 15.2529 200.365 15.2529ZM199.962 17.6535C196.337 17.6535 194.524 20.5076 194.524 26.2158C194.524 28.8298 194.981 31.0704 195.894 32.9376C196.807 34.8047 198.163 35.7516 199.962 35.7783C201.923 35.805 203.312 35.0315 204.132 33.4577C204.951 31.8839 205.36 29.63 205.36 26.6959C205.36 24.0018 204.924 21.8213 204.051 20.1542C203.178 18.4871 201.815 17.6535 199.962 17.6535ZM212.593 18.4937V15.9331H222.22V18.4937L220.045 18.9739L223.952 28.8965L225.523 33.8178L226.974 29.0165L230.398 18.9338L227.9 18.4937V15.9331H236.52V18.4937L234.345 19.0139L226.611 38.0989H222.865L214.526 18.8938L212.593 18.4937Z" fill="#2F6794"/>
</svg>
