<svg width="175" height="36" viewBox="0 0 175 36" fill="none" xmlns="http://www.w3.org/2000/svg">
<path d="M31.8369 10.8485L35.3743 7.27364V30.9818C35.3743 33.6142 33.2626 35.7482 30.6578 35.7482H4.71658C2.11168 35.7482 0 33.6142 0 30.9818V4.76643C0 2.134 2.11168 0 4.71658 0H27.179L23.6416 3.57482H4.71658C4.06535 3.57482 3.53743 4.10832 3.53743 4.76643V30.9818C3.53743 31.6399 4.06535 32.1734 4.71658 32.1734H30.6578C31.309 32.1734 31.8369 31.6399 31.8369 30.9818V10.8485Z" fill="#C7A97B"/>
<path fill-rule="evenodd" clip-rule="evenodd" d="M12.8231 12.1767C13.5557 12.1767 14.1497 12.7769 14.1497 13.5173V27.3697H11.4966V13.5173C11.4966 12.7769 12.0905 12.1767 12.8231 12.1767ZM18.1293 7.70819C18.8619 7.70819 19.4558 8.30838 19.4558 9.04875V27.3697H16.8027V9.04875C16.8027 8.30838 17.3966 7.70819 18.1293 7.70819ZM23.4354 16.6452C24.168 16.6452 24.762 17.2454 24.762 17.9858V27.3697H22.1089V17.9858C22.1089 17.2454 22.7028 16.6452 23.4354 16.6452Z" fill="#2C608A"/>
<path fill-rule="evenodd" clip-rule="evenodd" d="M115.342 23.8826C116.077 23.8826 116.638 24.087 117.026 24.4959C117.413 24.9048 117.607 25.4384 117.607 26.0966C117.607 26.8347 117.334 27.438 116.787 27.9068C116.241 28.3755 115.62 28.6099 114.924 28.6099C114.308 28.6099 113.777 28.4104 113.33 28.0115C112.883 27.6126 112.659 27.094 112.659 26.4557C112.659 25.7575 112.937 25.1542 113.494 24.6455C114.05 24.1369 114.666 23.8826 115.342 23.8826Z" fill="#C7A97B"/>
<path fill-rule="evenodd" clip-rule="evenodd" d="M50.4378 26.2163V7.84558L48.0236 7.51646V5.57168H52.3155C52.852 5.57168 53.4878 5.54176 54.223 5.48192C55.5344 5.40214 56.6074 5.36224 57.4419 5.36224C60.025 5.36224 62.007 5.87087 63.388 6.88815C64.7689 7.90542 65.4594 9.63077 65.4594 12.0643C65.4594 13.5802 65.0819 14.9016 64.3268 16.0286C63.5718 17.1556 62.5584 18.0183 61.2867 18.6167C60.0151 19.2151 58.6242 19.5143 57.1141 19.5143H55.6238C54.8886 19.5143 54.382 19.5342 54.1038 19.5741V26.2163L57.8592 26.695V28.2508H47.7554V26.695L50.4378 26.2163ZM54.1038 17.5096C54.7396 17.6094 55.6834 17.6592 56.9352 17.6592C58.4056 17.6592 59.5779 17.2204 60.4522 16.3428C61.3265 15.4651 61.7636 14.029 61.7636 12.0343C61.7636 10.4386 61.3016 9.23186 60.3777 8.41405C59.4537 7.59624 58.1572 7.20729 56.4882 7.24718C55.3556 7.32697 54.5608 7.41673 54.1038 7.51646V17.5096ZM85.6961 26.2163H89.3953L96.8167 5.57168H100.155L107.278 26.2163L109.573 26.7249V28.2508H101.049V26.7249L103.284 26.2163L102.092 22.4165H93.6872L92.4354 26.1864L94.7602 26.695V28.2508H82.5538C82.2359 28.2508 81.8981 27.9466 81.5404 27.3383C81.1828 26.7299 80.7059 25.7675 80.1098 24.451C79.2753 22.596 78.5252 21.1499 77.8595 20.1127C77.1939 19.0754 76.4736 18.5568 75.6987 18.5568L73.4931 18.5868V26.2163L76.4438 26.695V28.2508H67.1447V26.695L69.7973 26.2163V7.78574L67.4726 7.51646V5.57168H71.1088C71.526 5.57168 71.9234 5.56171 72.3009 5.54176C72.6785 5.52182 73.0262 5.50187 73.3441 5.48192C74.576 5.40214 75.5497 5.36224 76.265 5.36224C78.7885 5.36224 80.7605 5.82101 82.1812 6.73855C83.6019 7.65609 84.3123 9.19195 84.3123 11.3462C84.3123 12.9419 83.8851 14.3132 83.0307 15.4601C82.1763 16.6071 80.9841 17.4398 79.4541 17.9584C79.5167 17.9801 79.6751 18.0696 79.931 18.2277C80.5271 18.6067 81.0784 19.1752 81.5851 19.9331C82.0918 20.6911 82.7227 21.7383 83.4777 23.0747C84.0341 24.072 84.4812 24.825 84.8189 25.3336C85.128 25.799 85.4204 26.0932 85.6961 26.2163ZM75.7583 7.21727C75.5993 7.23721 75.3808 7.24718 75.1026 7.24718C74.3078 7.28708 73.7713 7.35689 73.4931 7.45662V16.6719C73.9501 16.7317 74.6754 16.7616 75.6689 16.7616C77.2982 16.7616 78.5301 16.3677 79.3647 15.5798C80.1992 14.7919 80.6165 13.5204 80.6165 11.7651C80.6165 10.289 80.224 9.15208 79.4392 8.35421C78.6543 7.55635 77.4274 7.17737 75.7583 7.21727ZM99.2309 13.4106L97.9493 9.13213L94.3429 20.3221H101.407L99.2309 13.4106ZM129.634 11.3462C131.482 11.3462 132.963 11.7551 134.075 12.5729C134.473 11.9346 135.357 11.6155 136.728 11.6155H138.308V14.3082H135.417C135.754 14.9864 135.923 15.7942 135.923 16.7317C135.923 17.9884 135.615 19.0655 134.999 19.9631C134.383 20.8607 133.559 21.5338 132.526 21.9826C131.492 22.4314 130.34 22.6558 129.068 22.6558C128.035 22.6558 127.071 22.5162 126.177 22.237C126.058 22.5561 125.998 22.8852 125.998 23.2243V23.7928C125.998 24.3513 126.152 24.7702 126.46 25.0494C126.768 25.3287 127.26 25.4783 127.936 25.4982C128.591 25.5381 129.803 25.558 131.572 25.558C133.956 25.558 135.585 25.9669 136.46 26.7847C137.334 27.6026 137.771 28.7495 137.771 30.2255C137.771 31.4223 137.414 32.4545 136.698 33.3222C135.983 34.1899 134.994 34.8531 133.733 35.3119C132.471 35.7706 131.025 36 129.396 36C127.31 36 125.591 35.6609 124.24 34.9827C122.889 34.3046 122.213 33.1975 122.213 31.6617C122.213 30.8438 122.456 30.0809 122.943 29.3728C123.43 28.6647 124.011 28.1112 124.687 27.7123C124.17 27.5327 123.793 27.3083 123.554 27.0391C123.316 26.7698 123.172 26.4905 123.122 26.2013C123.072 25.9121 123.048 25.5381 123.048 25.0793C123.048 24.6604 123.226 24.1069 123.584 23.4188C123.942 22.7306 124.379 22.1572 124.896 21.6984C123.226 20.741 122.392 19.255 122.392 17.2404C122.392 15.9438 122.73 14.8568 123.405 13.9791C124.081 13.1015 124.965 12.4432 126.058 12.0044C127.151 11.5656 128.343 11.3462 129.634 11.3462ZM129.068 13.0516C128.134 13.0516 127.389 13.3309 126.833 13.8894C126.276 14.4479 125.998 15.3056 125.998 16.4625C125.998 17.759 126.276 18.8062 126.833 19.604C127.389 20.4019 128.263 20.8008 129.456 20.8008C130.509 20.8008 131.264 20.4817 131.721 19.8434C132.178 19.2051 132.406 18.2676 132.406 17.0309C132.406 14.378 131.294 13.0516 129.068 13.0516ZM126.237 28.0713C125.78 28.7295 125.551 29.5573 125.551 30.5546C125.551 31.7514 125.968 32.644 126.803 33.2324C127.638 33.8209 128.701 34.1151 129.992 34.1151C131.502 34.1151 132.65 33.8757 133.435 33.397C134.219 32.9183 134.612 32.1603 134.612 31.1231C134.612 30.425 134.503 29.8665 134.284 29.4476C134.065 29.0287 133.678 28.7196 133.122 28.5201C132.565 28.3206 131.77 28.2209 130.737 28.2209L128.651 28.191C127.618 28.191 126.813 28.1511 126.237 28.0713ZM148.249 11.406C150.713 11.406 152.59 12.159 153.882 13.665C155.174 15.1709 155.819 17.1805 155.819 19.6938C155.819 21.4491 155.472 22.9999 154.776 24.3463C154.081 25.6927 153.127 26.7399 151.915 27.4879C150.703 28.2359 149.332 28.6098 147.802 28.6098C145.239 28.6098 143.301 27.817 141.99 26.2312C140.678 24.6455 140.023 22.5761 140.023 20.0229C140.023 18.2676 140.39 16.7417 141.126 15.4452C141.861 14.1487 142.849 13.1513 144.091 12.4532C145.333 11.7551 146.719 11.406 148.249 11.406ZM147.951 13.2012C145.268 13.2012 143.927 15.3355 143.927 19.604C143.927 21.5588 144.265 23.2343 144.941 24.6305C145.616 26.0268 146.62 26.7349 147.951 26.7548C149.401 26.7748 150.43 26.1963 151.036 25.0195C151.642 23.8426 151.945 22.1572 151.945 19.9631C151.945 17.9485 151.622 16.3178 150.976 15.0712C150.33 13.8245 149.322 13.2012 147.951 13.2012ZM157.296 13.8295V11.9147H164.419V13.8295L162.81 14.1886L165.701 21.6086L166.863 25.2888L167.936 21.6984L170.47 14.1586L168.622 13.8295V11.9147H175V13.8295L173.391 14.2185L167.668 28.4902H164.896L158.727 14.1287L157.296 13.8295Z" fill="#2C608A"/>
</svg>
